<svg width="403" height="388" viewBox="0 0 403 388" fill="none" xmlns="http://www.w3.org/2000/svg">
<g filter="url(#filter0_d_1857_5108)">
<path d="M110.253 247.644V218.012H80V246.985H110.253V247.644Z" fill="white"/>
<path d="M317.899 230.525C317.211 233.817 315.836 237.768 314.461 241.06C314.461 241.719 313.774 242.377 313.774 243.036C311.023 249.621 307.585 255.547 304.147 261.473C300.71 266.083 297.272 270.692 293.834 274.643C291.771 276.619 290.396 278.594 288.333 280.57L289.021 279.911C286.271 282.545 283.52 285.179 280.082 287.813C278.707 289.13 276.645 289.788 275.269 291.105C274.582 291.105 273.894 291.764 273.894 291.764C269.769 294.398 265.643 296.373 260.83 298.349C255.33 300.983 249.142 302.958 242.954 304.275C236.765 305.592 229.89 306.909 223.702 307.567C216.138 308.226 208.575 308.226 200.324 306.909C165.258 302.3 135.692 283.204 117.815 256.864C121.941 261.473 126.066 265.424 130.879 268.717C139.13 274.643 148.756 279.253 159.757 281.228C164.57 282.545 170.071 282.545 174.884 282.545C176.259 282.545 177.634 282.545 179.009 282.545C186.573 282.545 194.136 281.228 201.012 278.594C202.387 277.936 203.074 277.936 204.45 277.277C206.512 276.619 209.263 275.302 211.325 274.643C212.013 274.643 212.013 273.985 212.7 273.985C234.015 262.79 249.829 243.036 252.58 218.013C253.267 213.404 253.267 208.136 253.267 203.527C272.519 203.527 288.333 214.721 296.584 229.866C297.272 231.842 297.959 233.817 298.647 235.793C298.647 234.476 298.647 233.817 298.647 232.5C298.647 227.232 297.959 222.623 297.272 217.355C290.396 182.455 258.08 156.774 219.576 156.774C214.763 156.774 210.638 157.433 205.825 158.091C205.825 158.091 205.825 158.091 205.137 158.091C191.386 160.067 181.76 164.018 166.633 174.553C160.445 178.504 148.069 189.04 138.443 197.6C133.63 202.21 125.379 197.6 126.754 191.016C128.129 185.089 130.192 178.504 134.317 171.261C115.065 145.58 115.065 117.924 152.882 93.5597C174.884 79.073 211.325 75.1221 245.016 86.9748C265.643 76.4391 295.209 75.7806 322.024 103.437C324.775 106.071 322.712 110.68 318.587 110.68C311.023 110.68 300.71 112.656 292.459 118.582C293.146 119.241 293.834 120.558 295.209 121.875C327.525 162.701 326.837 200.893 317.899 230.525Z" fill="white"/>
</g>
<defs>
<filter id="filter0_d_1857_5108" x="0.400002" y="0.400002" width="402.476" height="387.2" filterUnits="userSpaceOnUse" color-interpolation-filters="sRGB">
<feFlood flood-opacity="0" result="BackgroundImageFix"/>
<feColorMatrix in="SourceAlpha" type="matrix" values="0 0 0 0 0 0 0 0 0 0 0 0 0 0 0 0 0 0 127 0" result="hardAlpha"/>
<feOffset/>
<feGaussianBlur stdDeviation="39.8"/>
<feComposite in2="hardAlpha" operator="out"/>
<feColorMatrix type="matrix" values="0 0 0 0 0 0 0 0 0 0.74902 0 0 0 0 0.984314 0 0 0 0.8 0"/>
<feBlend mode="normal" in2="BackgroundImageFix" result="effect1_dropShadow_1857_5108"/>
<feBlend mode="normal" in="SourceGraphic" in2="effect1_dropShadow_1857_5108" result="shape"/>
</filter>
</defs>
</svg>
